<svg width="1280" height="720" viewBox="0 0 1280 720" fill="none" xmlns="http://www.w3.org/2000/svg" role="img" aria-labelledby="title desc">
  <title id="title">Two-tower retrieval dashboard preview</title>
  <desc id="desc">A product search workbench showing ranked e-commerce products with semantic and metadata scoring signals.</desc>
  <rect width="1280" height="720" fill="#F5F7FB"/>
  <rect x="52" y="44" width="1176" height="632" rx="18" fill="#FFFFFF" stroke="#D9E1EA"/>
  <rect x="52" y="44" width="86" height="632" rx="18" fill="#101820"/>
  <rect x="72" y="74" width="46" height="46" rx="8" fill="#0F5FCC"/>
  <text x="178" y="98" fill="#657184" font-family="Inter, Arial, sans-serif" font-size="15" font-weight="800">SCALABLE RETRIEVAL SYSTEM</text>
  <text x="178" y="150" fill="#101820" font-family="Inter, Arial, sans-serif" font-size="48" font-weight="800">Two-Tower Product Search</text>
  <rect x="178" y="202" width="864" height="62" rx="8" fill="#FFFFFF" stroke="#CBD5E1"/>
  <text x="214" y="240" fill="#101820" font-family="Inter, Arial, sans-serif" font-size="19">wireless headphones</text>
  <rect x="1060" y="202" width="112" height="62" rx="8" fill="#0F5FCC"/>
  <text x="1085" y="240" fill="#FFFFFF" font-family="Inter, Arial, sans-serif" font-size="18" font-weight="800">Search</text>
  <rect x="178" y="304" width="292" height="92" rx="8" fill="#F8FAFC" stroke="#D9E1EA"/>
  <text x="204" y="336" fill="#657184" font-family="Inter, Arial, sans-serif" font-size="14" font-weight="800">Top match</text>
  <text x="204" y="372" fill="#101820" font-family="Inter, Arial, sans-serif" font-size="24" font-weight="800">Noise Cancelling Headphones</text>
  <rect x="496" y="304" width="236" height="92" rx="8" fill="#F8FAFC" stroke="#D9E1EA"/>
  <text x="522" y="336" fill="#657184" font-family="Inter, Arial, sans-serif" font-size="14" font-weight="800">Top score</text>
  <text x="522" y="374" fill="#0F5FCC" font-family="Inter, Arial, sans-serif" font-size="34" font-weight="800">0.713</text>
  <rect x="758" y="304" width="414" height="92" rx="8" fill="#F8FAFC" stroke="#D9E1EA"/>
  <text x="784" y="336" fill="#657184" font-family="Inter, Arial, sans-serif" font-size="14" font-weight="800">Signals</text>
  <text x="784" y="374" fill="#101820" font-family="Inter, Arial, sans-serif" font-size="22" font-weight="800">Semantic + metadata + segment boost</text>
  <rect x="178" y="444" width="994" height="70" rx="8" fill="#FFFFFF" stroke="#D9E1EA"/>
  <circle cx="214" cy="479" r="17" fill="#101820"/>
  <text x="209" y="486" fill="#FFFFFF" font-family="Inter, Arial, sans-serif" font-size="18" font-weight="800">1</text>
  <text x="254" y="474" fill="#101820" font-family="Inter, Arial, sans-serif" font-size="21" font-weight="800">Wireless Noise Cancelling Headphones</text>
  <text x="254" y="500" fill="#657184" font-family="Inter, Arial, sans-serif" font-size="15">Electronics · $129.99 · 18,420 reviews</text>
  <rect x="812" y="466" width="210" height="10" rx="5" fill="#E4EBF2"/>
  <rect x="812" y="466" width="152" height="10" rx="5" fill="#0F5FCC"/>
  <text x="1084" y="488" fill="#0F5FCC" font-family="Inter, Arial, sans-serif" font-size="24" font-weight="800">0.713</text>
  <rect x="178" y="530" width="994" height="70" rx="8" fill="#FFFFFF" stroke="#D9E1EA"/>
  <circle cx="214" cy="565" r="17" fill="#101820"/>
  <text x="209" y="572" fill="#FFFFFF" font-family="Inter, Arial, sans-serif" font-size="18" font-weight="800">2</text>
  <text x="254" y="560" fill="#101820" font-family="Inter, Arial, sans-serif" font-size="21" font-weight="800">Bluetooth Earbuds with Charging Case</text>
  <text x="254" y="586" fill="#657184" font-family="Inter, Arial, sans-serif" font-size="15">Electronics · $39.99 · 9,320 reviews</text>
  <rect x="812" y="552" width="210" height="10" rx="5" fill="#E4EBF2"/>
  <rect x="812" y="552" width="120" height="10" rx="5" fill="#0CB17E"/>
  <text x="1084" y="574" fill="#0F5FCC" font-family="Inter, Arial, sans-serif" font-size="24" font-weight="800">0.621</text>
</svg>
